<?xml version="1.0" encoding="utf-8"?>
<!-- Generator: Adobe Illustrator 23.0.0, SVG Export Plug-In . SVG Version: 6.00 Build 0)  -->
<svg version="1.1" id="图层_1" xmlns="http://www.w3.org/2000/svg" xmlns:xlink="http://www.w3.org/1999/xlink" x="0px" y="0px"
	 viewBox="0 0 24 24" style="enable-background:new 0 0 24 24;" xml:space="preserve">
<style type="text/css">
	.st0{fill-rule:evenodd;clip-rule:evenodd;fill:#909399;}
</style>
<path class="st0" d="M21,6.5v1h-4v-1h-1v-2h1v-1h4v1h1v2H21z M14,7.5h-4v-1H9v-2h1v-1h4v1h1v2h-1V7.5z M7,7.5H3v-1H2v-2h1v-1h4v1h1
	v2H7V7.5z M7,20.5H6v1H4v-1H3v-12h4V20.5z M14,20.5h-1v1h-2v-1h-1v-12h4V20.5z M21,20.5h-1v1h-2v-1h-1v-12h4V20.5z"/>
</svg>
