<?xml version="1.0" encoding="utf-8"?>
<!-- Generator: Adobe Illustrator 23.0.0, SVG Export Plug-In . SVG Version: 6.00 Build 0)  -->
<svg version="1.1" id="图层_1" xmlns="http://www.w3.org/2000/svg" xmlns:xlink="http://www.w3.org/1999/xlink" x="0px" y="0px"
	 viewBox="0 0 24 24" style="enable-background:new 0 0 24 24;" xml:space="preserve">
<style type="text/css">
	.st0{fill-rule:evenodd;clip-rule:evenodd;fill:#909399;}
</style>
<path class="st0" d="M17.6,22.5H6.4c-0.2,0-0.5-0.1-0.6-0.3l-1.5-1.5C4.1,20.6,4,20.4,4,20.1V5.9c0-0.3,0.1-0.5,0.3-0.7l4.4-3.5
	c0.2-0.1,0.4-0.2,0.6-0.2h9.3c0.2,0,0.5,0.1,0.6,0.3l0.5,0.5C19.9,2.4,20,2.6,20,2.9v17.3c0,0.2-0.1,0.5-0.3,0.6l-1.5,1.5
	C18.1,22.4,17.9,22.5,17.6,22.5z M11.9,19.5h0.2c0.5,0,0.9-0.4,0.9-0.9v-1.2c0-0.5-0.4-0.9-0.9-0.9h-0.2c-0.5,0-0.9,0.4-0.9,0.9v1.2
	C11,19.1,11.4,19.5,11.9,19.5z M7.9,19.5h0.2c0.5,0,0.9-0.4,0.9-0.9v-1.2c0-0.5-0.4-0.9-0.9-0.9H7.9c-0.5,0-0.9,0.4-0.9,0.9v1.2
	C7,19.1,7.4,19.5,7.9,19.5z M8.1,9.5H7.9C7.4,9.5,7,9.9,7,10.4v1.2c0,0.5,0.4,0.9,0.9,0.9h0.2c0.5,0,0.9-0.4,0.9-0.9v-1.2
	C9,9.9,8.6,9.5,8.1,9.5z M12.1,9.5h-0.2c-0.5,0-0.9,0.4-0.9,0.9v1.2c0,0.5,0.4,0.9,0.9,0.9h0.2c0.5,0,0.9-0.4,0.9-0.9v-1.2
	C13,9.9,12.6,9.5,12.1,9.5z M16.1,9.5h-0.2c-0.5,0-0.9,0.4-0.9,0.9v1.2c0,0.5,0.4,0.9,0.9,0.9h0.2c0.5,0,0.9-0.4,0.9-0.9v-1.2
	C17,9.9,16.6,9.5,16.1,9.5z M16.1,13.5H7.9c-0.5,0-0.9,0.4-0.9,0.9v0.2c0,0.5,0.4,0.9,0.9,0.9h8.2c0.5,0,0.9-0.4,0.9-0.9v-0.2
	C17,13.9,16.6,13.5,16.1,13.5z M16.1,16.5h-0.2c-0.5,0-0.9,0.4-0.9,0.9v1.2c0,0.5,0.4,0.9,0.9,0.9h0.2c0.5,0,0.9-0.4,0.9-0.9v-1.2
	C17,16.9,16.6,16.5,16.1,16.5z"/>
</svg>
