<?xml version="1.0" encoding="utf-8"?>
<!-- Generator: Adobe Illustrator 23.0.0, SVG Export Plug-In . SVG Version: 6.00 Build 0)  -->
<svg version="1.1" id="图层_1" xmlns="http://www.w3.org/2000/svg" xmlns:xlink="http://www.w3.org/1999/xlink" x="0px" y="0px"
	 viewBox="0 0 24 24" style="enable-background:new 0 0 24 24;" xml:space="preserve">
<style type="text/css">
	.st0{fill-rule:evenodd;clip-rule:evenodd;fill:#909399;}
</style>
<path class="st0" d="M20,18.4h-7v1h4v2H7v-2h4v-1H4c-1.1,0-2-0.9-2-2v-1h20v1C22,17.5,21.1,18.4,20,18.4z M2,5.4c0-1.1,0.9-2,2-2h16
	c1.1,0,2,0.9,2,2v9H2V5.4z M18,7.4h2v-2h-2V7.4z M15,7.4h2v-2h-2V7.4z M12,7.4h2v-2h-2V7.4z"/>
</svg>
