<?xml version="1.0" encoding="utf-8"?>
<!-- Generator: Adobe Illustrator 23.0.0, SVG Export Plug-In . SVG Version: 6.00 Build 0)  -->
<svg version="1.1" id="图层_1" xmlns="http://www.w3.org/2000/svg" xmlns:xlink="http://www.w3.org/1999/xlink" x="0px" y="0px"
	 viewBox="0 0 24 24" style="enable-background:new 0 0 24 24;" xml:space="preserve">
<style type="text/css">
	.st0{fill-rule:evenodd;clip-rule:evenodd;fill:#909399;}
</style>
<path class="st0" d="M13,22.2v-8.7c0-0.2,0.1-0.4,0.3-0.5l7.9-4.4C21.5,8.4,22,8.7,22,9.1v8.7c0,0.2-0.1,0.4-0.3,0.5l-7.9,4.4
	C13.5,22.9,13,22.6,13,22.2z M3,5.6l8.7-4.4c0.2-0.1,0.4-0.1,0.5,0L21,5.6c0.4,0.2,0.4,0.8,0,1L12.3,11c-0.2,0.1-0.4,0.1-0.5,0
	L3,6.7C2.6,6.5,2.6,5.9,3,5.6z M10.1,22.7l-7.9-4.4C2.1,18.2,2,18,2,17.8V9.1c0-0.4,0.5-0.7,0.9-0.5l7.9,4.4
	c0.2,0.1,0.3,0.3,0.3,0.5v8.7C11,22.6,10.5,22.9,10.1,22.7z"/>
</svg>
