<?xml version="1.0" encoding="utf-8"?>
<!-- Generator: Adobe Illustrator 23.0.0, SVG Export Plug-In . SVG Version: 6.00 Build 0)  -->
<svg version="1.1" id="图层_1" xmlns="http://www.w3.org/2000/svg" xmlns:xlink="http://www.w3.org/1999/xlink" x="0px" y="0px"
	 viewBox="0 0 24 24" style="enable-background:new 0 0 24 24;" xml:space="preserve">
<style type="text/css">
	.st0{fill-rule:evenodd;clip-rule:evenodd;fill:#909399;}
</style>
<path class="st0" d="M20,13.6h-1v6c0,1.1-0.9,2-2,2s-2-0.9-2-2v-6h-1v6c0,1.1-0.9,2-2,2s-2-0.9-2-2v-6H9v6c0,1.1-0.9,2-2,2
	s-2-0.9-2-2v-6H4c-1.1,0-2-0.9-2-2v-6c0-1.1,0.9-2,2-2h16c1.1,0,2,0.9,2,2v6C22,12.7,21.1,13.6,20,13.6z M13,5.6c-0.6,0-1,0.4-1,1
	s0.4,1,1,1s1-0.4,1-1S13.6,5.6,13,5.6z M16,5.6c-0.6,0-1,0.4-1,1s0.4,1,1,1s1-0.4,1-1S16.6,5.6,16,5.6z M19,5.6c-0.6,0-1,0.4-1,1
	s0.4,1,1,1s1-0.4,1-1S19.6,5.6,19,5.6z M19.5,10.6h-15c-0.3,0-0.5,0.2-0.5,0.5s0.2,0.5,0.5,0.5h15c0.3,0,0.5-0.2,0.5-0.5
	S19.8,10.6,19.5,10.6z"/>
</svg>
