<?xml version="1.0" encoding="utf-8"?>
<!-- Generator: Adobe Illustrator 23.0.0, SVG Export Plug-In . SVG Version: 6.00 Build 0)  -->
<svg version="1.1" id="图层_1" xmlns="http://www.w3.org/2000/svg" xmlns:xlink="http://www.w3.org/1999/xlink" x="0px" y="0px"
	 viewBox="0 0 24 24" style="enable-background:new 0 0 24 24;" xml:space="preserve">
<style type="text/css">
	.st0{fill-rule:evenodd;clip-rule:evenodd;fill:#909399;}
</style>
<path class="st0" d="M21,12v9c0,1.1-0.9,2-2,2h-4v-5c0-1.1-0.9-2-2-2h-2c-1.1,0-2,0.9-2,2v5H5c-1.1,0-2-0.9-2-2v-9H2.4
	C1.6,12,1,11.4,1,10.6v0c0-0.4,0.2-0.8,0.5-1l8.8-7.9C10.7,1.2,11.4,1,12,1h0c0.6,0,1.3,0.2,1.7,0.7l8.8,7.9c0.3,0.3,0.5,0.6,0.5,1
	v0c0,0.8-0.6,1.4-1.4,1.4H21z"/>
</svg>
